<?xml version="1.0" encoding="utf-8"?>
<!-- Generator: Adobe Illustrator 24.1.0, SVG Export Plug-In . SVG Version: 6.00 Build 0)  -->
<svg version="1.1" id="Calque_1" xmlns="http://www.w3.org/2000/svg" xmlns:xlink="http://www.w3.org/1999/xlink" x="0px" y="0px"
	 viewBox="0 0 1080 1600" enable-background="new 0 0 1080 1600" xml:space="preserve">
<rect x="-418.78" y="421.22" transform="matrix(6.123234e-17 -1 1 6.123234e-17 -419.8881 1502.8357)" fill="#FFFFFF" stroke="#000000" stroke-width="3.1037" stroke-miterlimit="10" width="1920.5" height="1080.28"/>
<g>
	<g>
		<g>
			<g>
				<g>
					<path opacity="0.47" fill="#17517D" d="M476.15,957.72c13.83,16.69,34.62,26.21,56.29,25.76c-7.34-2.39-16.03-5.71-26.37-10.28
						C497.43,969.37,486.68,964.55,476.15,957.72z"/>
					<path opacity="0.47" fill="#17517D" d="M556.04,831.35L556.04,831.35c0,0,32.04,25.35,47.92,77.78
						c0.75-6.46,1.1-12.49,1.7-18.28c0.18-1.69,0.31-3.26,0.46-4.88c-18.85-43.67-45.66-64.86-45.66-64.86l0,0
						c-3.54-2.83-7.31-5.38-11.19-7.75c-4.72,1.72-9.21,3.57-13.46,5.54C543.05,822.18,549.84,826.39,556.04,831.35z"/>
					<path opacity="0.47" fill="#17517D" d="M550.08,845.13L550.08,845.13c-9.73-7.78-21.26-13.3-33.62-15.62
						c-7.29,4.69-13.64,9.63-19.17,14.59c2.32-0.37,4.67-0.66,7.08-0.77c14.97-0.66,29.22,4.79,40.52,13.82l0,0
						c0,0,42.18,33.47,38.34,103.41c5.38-5.84,9.69-12.5,12.84-19.7C589.28,876.22,550.08,845.13,550.08,845.13z"/>
					<path opacity="0.47" fill="#17517D" d="M607.79,857.56c0.39-26.5-3.46-38-6.62-42.94c-4.53-7.92-13.23-11.21-22.87-9.28
						c-3.4,0.66-6.67,1.42-9.89,2.21C573.55,812.01,591.17,828.53,607.79,857.56z"/>
					<path fill="#17517D" d="M539.73,869.11l-0.03,0.05c-8.84-7.07-19.99-11.33-31.71-10.81c-11.53,0.51-21.92,5.04-29.9,12.18
						c0,0-4.97,5.01-6.94,7.75c-6.11,8.46-9.55,18.95-9.05,30.19c0.74,16.93,10.17,31.42,23.79,39.39
						c8.25,5.36,16.67,9.13,23.44,12.13c31.69,14.02,43.75,13.09,48.9,11.75c6.03-1.26,9.95-6.16,10.71-12.75
						C576.32,898.17,539.73,869.11,539.73,869.11z M553.64,944.27c-0.52,4.5-3.2,7.85-7.31,8.71c-3.52,0.92-11.76,1.55-33.41-8.02
						c-4.63-2.05-10.38-4.63-16.01-8.29c-9.3-5.44-15.74-15.34-16.25-26.9c-0.34-7.68,2.01-14.84,6.19-20.62
						c1.34-1.87,4.74-5.29,4.74-5.29c5.45-4.87,12.55-7.97,20.42-8.32c8-0.35,15.61,2.55,21.65,7.38
						C533.66,882.91,558.68,902.74,553.64,944.27z"/>
				</g>
			</g>
		</g>
	</g>
	<g>
		<text transform="matrix(1 0 0 1 298.1973 1067.1113)" fill="#6E6E6D" font-family="'BellMT'" font-size="69.5029px">INTELLIGENT</text>
	</g>
	<text transform="matrix(1 0 0 1 347.2051 1119.2598)" fill="#6E6E6D" font-family="'BellMT'" font-size="57.4727px">air quality</text>
</g>
<g>
	<defs>
		
			<rect id="SVGID_1_" x="-418.78" y="421.22" transform="matrix(6.123234e-17 -1 1 6.123234e-17 -419.8881 1502.8357)" width="1920.5" height="1080.28"/>
	</defs>
	<clipPath id="SVGID_2_">
		<use xlink:href="#SVGID_1_"  overflow="visible"/>
	</clipPath>
	<g clip-path="url(#SVGID_2_)">
		<g>
			<g>
				<g>
					<g>
						<g>
							<path fill="#17517D" d="M1371.39,334.82l-0.62,1.08C1166.05,172.25,907.84,73.62,636.54,85.51
								C369.58,97.22,128.9,202.24-55.86,367.49c0,0-115.18,116.05-160.72,179.48c-141.49,196-221.07,438.75-209.65,698.98
								c17.2,392.08,235.52,727.59,550.83,912.03c190.95,124.09,385.92,211.42,542.89,280.89
								c733.85,324.54,1013.08,303.21,1132.39,272.02c139.57-29.22,230.33-142.64,247.97-295.26
								C2218.71,1007.77,1371.39,334.82,1371.39,334.82z M1693.58,2075.27c-12.05,104.26-74.05,181.76-169.37,201.69
								c-81.5,21.3-272.23,35.88-773.53-185.79c-107.23-47.45-240.4-107.11-370.84-191.87
								c-215.37-125.98-364.5-355.16-376.26-622.99c-7.82-177.75,46.59-343.59,143.22-477.48c31.12-43.32,109.8-122.58,109.8-122.58
								c126.21-112.88,290.59-184.59,472.95-192.61c185.33-8.14,361.42,58.99,501.25,170.81
								C1230.8,654.45,1810.29,1113.61,1693.58,2075.27z"/>
						</g>
					</g>
				</g>
			</g>
		</g>
	</g>
</g>
<g>
	<g>
		<g>
			<g>
				<g>
					<g>
						<g>
							<g>
								<path opacity="0.47" fill="#FFFFFF" d="M423.12,440.49c8.28,10,20.74,15.7,33.72,15.43c-4.4-1.43-9.6-3.42-15.79-6.16
									C435.86,447.46,429.42,444.58,423.12,440.49z"/>
								<path opacity="0.47" fill="#FFFFFF" d="M470.96,364.79L470.96,364.79c0,0,19.19,15.18,28.7,46.59
									c0.45-3.87,0.66-7.48,1.02-10.95c0.11-1.01,0.19-1.95,0.28-2.92c-11.29-26.16-27.35-38.85-27.35-38.85l0,0
									c-2.12-1.7-4.38-3.22-6.7-4.64c-2.83,1.03-5.52,2.14-8.06,3.32C463.18,359.3,467.25,361.83,470.96,364.79z"/>
								<path opacity="0.47" fill="#FFFFFF" d="M467.4,373.05L467.4,373.05c-5.83-4.66-12.74-7.96-20.14-9.36
									c-4.37,2.81-8.17,5.77-11.48,8.74c1.39-0.22,2.8-0.4,4.24-0.46c8.97-0.39,17.5,2.87,24.27,8.28l0,0
									c0,0,25.27,20.05,22.96,61.94c3.22-3.5,5.8-7.48,7.69-11.8C490.88,391.67,467.4,373.05,467.4,373.05z"/>
								<path fill="#FFFFFF" d="M501.96,380.49c0.23-15.87-2.07-22.76-3.96-25.72c-2.71-4.75-7.92-6.72-13.7-5.56
									c-2.04,0.4-4,0.85-5.92,1.32C481.45,353.21,492.01,363.11,501.96,380.49z"/>
								<path fill="#FFFFFF" d="M461.19,387.41l-0.02,0.03c-5.3-4.23-11.97-6.78-18.99-6.48c-6.91,0.3-13.13,3.02-17.91,7.29
									c0,0-2.98,3-4.16,4.64c-3.66,5.07-5.72,11.35-5.42,18.08c0.44,10.14,6.09,18.82,14.25,23.59c4.94,3.21,9.98,5.47,14.04,7.27
									c18.98,8.39,26.2,7.84,29.29,7.04c3.61-0.76,5.96-3.69,6.41-7.64C483.11,404.82,461.19,387.41,461.19,387.41z
									 M469.53,432.43c-0.31,2.7-1.92,4.7-4.38,5.22c-2.11,0.55-7.04,0.93-20.01-4.81c-2.77-1.23-6.22-2.77-9.59-4.96
									c-5.57-3.26-9.43-9.19-9.73-16.11c-0.2-4.6,1.21-8.89,3.7-12.35c0.8-1.12,2.84-3.17,2.84-3.17
									c3.26-2.92,7.52-4.77,12.23-4.98c4.79-0.21,9.35,1.53,12.97,4.42C457.56,395.68,472.55,407.56,469.53,432.43z"/>
							</g>
						</g>
					</g>
				</g>
			</g>
		</g>
		<g>
			<text transform="matrix(1 0 0 1 501.4746 445.123)" fill="#FFFFFF" font-family="'Futura-Bold'" font-size="31.9157px">Think </text>
		</g>
		<g>
			<text transform="matrix(1 0 0 1 596.8633 444.8301)" fill="#FFFFFF" font-family="'Futura-Medium'" font-size="28.9515px">Air</text>
		</g>
	</g>
	<path fill="#FFFFFF" d="M647.37,444.92c2.1-2.98,2.56-4.59,2.58-5.39c0.1-1.25-0.63-2.3-1.88-2.83c-0.44-0.19-0.87-0.36-1.29-0.52
		C647.02,437.08,647.74,440.33,647.37,444.92z"/>
	<path fill="#FFFFFF" d="M656.53,444.92c2.1-2.98,2.56-4.59,2.58-5.39c0.1-1.25-0.63-2.3-1.88-2.83c-0.44-0.19-0.87-0.36-1.29-0.52
		C656.18,437.08,656.9,440.33,656.53,444.92z"/>
	<path fill="#FFFFFF" d="M665.69,444.92c2.1-2.98,2.56-4.59,2.58-5.39c0.1-1.25-0.63-2.3-1.88-2.83c-0.44-0.19-0.87-0.36-1.29-0.52
		C665.33,437.08,666.05,440.33,665.69,444.92z"/>
</g>
</svg>
