<?xml version="1.0" encoding="utf-8"?>
<!-- Generator: Adobe Illustrator 24.1.0, SVG Export Plug-In . SVG Version: 6.00 Build 0)  -->
<svg version="1.1" id="Calque_1" xmlns="http://www.w3.org/2000/svg" xmlns:xlink="http://www.w3.org/1999/xlink" x="0px" y="0px"
	 viewBox="0 0 1080 1920" enable-background="new 0 0 1080 1920" xml:space="preserve">
<rect x="-418.78" y="421.22" transform="matrix(6.123234e-17 -1 1 6.123234e-17 -419.8881 1502.8357)" fill="#FFFFFF" stroke="#000000" stroke-width="3.1037" stroke-miterlimit="10" width="1920.5" height="1080.28"/>
<g>
	<g>
		<g>
			<g>
				<g>
					<path opacity="0.47" fill="#17517D" d="M476.15,957.72c13.83,16.69,34.62,26.21,56.29,25.76c-7.34-2.39-16.03-5.71-26.37-10.28
						C497.43,969.37,486.68,964.55,476.15,957.72z"/>
					<path opacity="0.47" fill="#17517D" d="M556.04,831.35L556.04,831.35c0,0,32.04,25.35,47.92,77.78
						c0.75-6.46,1.1-12.49,1.7-18.28c0.18-1.69,0.31-3.26,0.46-4.88c-18.85-43.67-45.66-64.86-45.66-64.86l0,0
						c-3.54-2.83-7.31-5.38-11.19-7.75c-4.72,1.72-9.21,3.57-13.46,5.54C543.05,822.18,549.84,826.39,556.04,831.35z"/>
					<path opacity="0.47" fill="#17517D" d="M550.08,845.13L550.08,845.13c-9.73-7.78-21.26-13.3-33.62-15.62
						c-7.29,4.69-13.64,9.63-19.17,14.59c2.32-0.37,4.67-0.66,7.08-0.77c14.97-0.66,29.22,4.79,40.52,13.82l0,0
						c0,0,42.18,33.47,38.34,103.41c5.38-5.84,9.69-12.5,12.84-19.7C589.28,876.22,550.08,845.13,550.08,845.13z"/>
					<path opacity="0.47" fill="#17517D" d="M607.79,857.56c0.39-26.5-3.46-38-6.62-42.94c-4.53-7.92-13.23-11.21-22.87-9.28
						c-3.4,0.66-6.67,1.42-9.89,2.21C573.55,812.01,591.17,828.53,607.79,857.56z"/>
					<path fill="#17517D" d="M539.73,869.11l-0.03,0.05c-8.84-7.07-19.99-11.33-31.71-10.81c-11.53,0.51-21.92,5.04-29.9,12.18
						c0,0-4.97,5.01-6.94,7.75c-6.11,8.46-9.55,18.95-9.05,30.19c0.74,16.93,10.17,31.42,23.79,39.39
						c8.25,5.36,16.67,9.13,23.44,12.13c31.69,14.02,43.75,13.09,48.9,11.75c6.03-1.26,9.95-6.16,10.71-12.75
						C576.32,898.17,539.73,869.11,539.73,869.11z M553.64,944.27c-0.52,4.5-3.2,7.85-7.31,8.71c-3.52,0.92-11.76,1.55-33.41-8.02
						c-4.63-2.05-10.38-4.63-16.01-8.29c-9.3-5.44-15.74-15.34-16.25-26.9c-0.34-7.68,2.01-14.84,6.19-20.62
						c1.34-1.87,4.74-5.29,4.74-5.29c5.45-4.87,12.55-7.97,20.42-8.32c8-0.35,15.61,2.55,21.65,7.38
						C533.66,882.91,558.68,902.74,553.64,944.27z"/>
				</g>
			</g>
		</g>
	</g>
	<g>
		<g>
			<path fill="#6E6E6D" d="M302.92,1022.35l6.19,0.14l9.49-0.14c1.13,0,1.7,0.23,1.7,0.68c0,0.34-0.31,0.55-0.92,0.64
				c-2.51,0.32-4.08,1.22-4.7,2.71c-0.62,1.49-0.93,7.01-0.93,16.56c0,3.51,0.09,7.46,0.27,11.84c0.18,4.39,0.38,7.01,0.61,7.87
				c0.23,0.86,0.66,1.56,1.29,2.1s1.81,0.93,3.53,1.15c0.56,0.07,0.85,0.28,0.85,0.64c0,0.41-0.26,0.61-0.78,0.61l-8.43-0.07
				l-7.17,0.1c-0.79,0-1.19-0.23-1.19-0.68c0-0.47,0.32-0.71,0.95-0.71c2.1-0.04,3.34-0.75,3.7-2.1c0.36-1.36,0.54-5.69,0.54-13
				c0-7.06-0.06-12.77-0.19-17.14c-0.12-4.37-0.49-7.04-1.1-8.01c-0.61-0.97-1.76-1.58-3.46-1.83c-0.63-0.11-0.95-0.37-0.95-0.78
				S302.44,1022.35,302.92,1022.35z"/>
			<path fill="#6E6E6D" d="M336.72,1022.93c1.36,1.83,3.71,4.67,7.06,8.52l10.86,12.59l10.45,12.08c0.23-4.09,0.34-9.41,0.34-15.95
				c0-4.91-0.1-8.2-0.31-9.86s-0.96-3.06-2.26-4.19c-1.3-1.13-2.92-1.7-4.87-1.7c-0.91,0-1.36-0.19-1.36-0.58
				c0-0.23,0.1-0.39,0.29-0.49c0.19-0.1,1.71-0.2,4.56-0.31c2.85-0.1,5.25-0.15,7.19-0.15l4.58,0.03h0.75c0.7,0,1.05,0.2,1.05,0.59
				c0,0.35-0.31,0.56-0.92,0.63c-2.29,0.25-3.93,0.84-4.94,1.78c-1.01,0.94-1.61,2.29-1.8,4.06c-0.19,1.77-0.29,7.71-0.29,17.83
				l-0.33,17.93c0,0.91-0.22,1.36-0.67,1.36c-0.12,0-0.27-0.05-0.47-0.15c-0.2-0.1-1.21-1.24-3.04-3.43s-4.09-4.8-6.77-7.86
				c-2.68-3.05-4.79-5.53-6.33-7.43c-3.37-4.09-5.5-6.62-6.38-7.57c-3.28-3.48-5.22-5.72-5.8-6.72c-0.39-0.68-0.74-1.02-1.05-1.02
				c-0.25,0-0.37,0.44-0.37,1.32l0.07,5.26c0,6.67,0.18,12,0.54,15.98c0.36,3.98,0.74,6.32,1.14,7.01c0.4,0.69,1.09,1.39,2.07,2.09
				c0.98,0.7,2.03,1.05,3.14,1.05c1.49,0,2.24,0.27,2.24,0.81c0,0.41-0.42,0.61-1.26,0.61l-16.32-0.03c-0.77,0-1.15-0.19-1.15-0.58
				c0-0.45,0.37-0.68,1.12-0.68c2.78,0,4.64-0.62,5.57-1.85s1.39-3.85,1.39-7.86l-0.28-11.91c0-7.04-0.18-11.18-0.57-12.44
				c-0.38-1.26-1.25-2.78-2.6-4.58s-2.88-2.81-4.6-3.04c-0.77-0.09-1.15-0.29-1.15-0.61c0-0.43,0.5-0.64,1.49-0.64L336.72,1022.93z"
				/>
			<path fill="#6E6E6D" d="M397.67,1024.55c-1.77-0.09-3.01-0.14-3.73-0.14c-4.89,0-8.43,1.02-10.63,3.07
				c-2.2,2.04-3.47,3.86-3.84,5.45c-0.11,0.57-0.42,0.85-0.91,0.85c-0.22,0-0.44-0.11-0.64-0.33c0.11-2.7,0.55-6.33,1.32-10.91
				c1.09-0.02,1.78-0.03,2.07-0.03c1.76,0,4.13,0.09,7.09,0.27c3.19,0.18,8.08,0.27,14.66,0.27c6.74,0,11.13-0.08,13.17-0.24
				c1.85-0.18,4.4-0.27,7.64-0.27c0.27,1.63,0.45,3.33,0.54,5.09c0.14,2.01,0.27,3.43,0.41,4.24c0.02,0.18,0.03,0.37,0.03,0.58
				c0,0.54-0.24,0.81-0.71,0.81c-0.29,0-0.53-0.1-0.73-0.29c-0.19-0.19-0.63-0.83-1.31-1.92c-1.18-1.83-2.4-3.22-3.67-4.16
				c-1.27-0.94-2.68-1.54-4.24-1.82s-4.72-0.45-9.47-0.54c-0.27,3.42-0.41,7.32-0.41,11.71c0,14.53,0.31,23.09,0.93,25.69
				c0.62,2.6,2.84,3.9,6.67,3.9c0.93,0,1.39,0.19,1.39,0.58c0,0.45-0.44,0.68-1.32,0.68h-20.87c-0.54,0-0.81-0.21-0.81-0.64
				s0.53-0.65,1.6-0.65c1.79,0,3.23-0.5,4.33-1.51c1.1-1.01,1.73-2.37,1.9-4.09c0.17-1.72,0.25-6.69,0.25-14.9
				C398.38,1038.31,398.14,1031.39,397.67,1024.55z"/>
			<path fill="#6E6E6D" d="M465.1,1023.09c0.66,2.53,1.3,6.09,1.93,10.66c-0.11,0.18-0.23,0.27-0.36,0.27
				c-0.15,0-0.32-0.09-0.5-0.27c-1.56-2.51-3.06-4.42-4.48-5.74c-1.43-1.31-2.86-2.25-4.3-2.8c-1.44-0.55-3.91-0.83-7.42-0.83
				c-3.31,0-5.92,0.19-7.84,0.58c-0.18,0.23-0.27,0.64-0.27,1.25c0,0.16-0.02,0.44-0.07,0.85c-0.23,1.81-0.34,6.71-0.34,14.7
				c0,0.34,0.02,0.81,0.07,1.42c1.72,0.07,2.9,0.1,3.53,0.1c2.85,0,4.92-0.43,6.2-1.28c1.28-0.85,2.39-2.69,3.35-5.51
				c0.16-0.48,0.38-0.72,0.67-0.72c0.43,0,0.64,0.33,0.64,0.99l-0.14,1.36c-0.18,1.79-0.27,3.64-0.27,5.54
				c0,3.08,0.06,5.86,0.17,8.33c0,0.77-0.21,1.16-0.62,1.16c-0.31,0-0.51-0.27-0.62-0.81c-0.48-2.67-1.48-4.59-3-5.77
				c-1.52-1.18-4.82-1.76-9.91-1.76c-0.07,1.65-0.1,4.32-0.1,8.01c0,4.77,0.17,7.8,0.51,9.09s1.15,2.31,2.44,3.07
				c1.29,0.76,3.48,1.14,6.55,1.14c8.81,0,14.49-3.03,17.05-9.09c0.31-0.75,0.64-1.12,0.97-1.12c0.36,0,0.54,0.25,0.54,0.75
				c0,0.27-0.06,0.57-0.17,0.88c-0.14,0.43-0.46,2.04-0.98,4.82c-0.11,0.59-0.54,2.35-1.29,5.29l-14.22-0.03
				c-2.04,0-5.03-0.08-8.98-0.25c-3.95-0.17-7.44-0.26-10.49-0.27s-4.63-0.07-4.77-0.19c-0.14-0.11-0.2-0.24-0.2-0.37
				c0-0.45,0.37-0.68,1.12-0.68c2.51,0,4.16-0.67,4.95-2c0.79-1.33,1.19-4.58,1.19-9.73l-0.03-6.95l0.1-6.51
				c0-1.31-0.07-3.79-0.22-7.44c-0.15-3.65-0.28-5.74-0.41-6.26c-0.12-0.52-0.48-1.03-1.05-1.54c-0.58-0.51-1.85-1.02-3.82-1.54
				c-0.59-0.16-0.88-0.41-0.88-0.75c0-0.41,0.4-0.61,1.19-0.61l6.92,0.37c2.44,0.11,8.45,0.17,18.02,0.17
				C461.75,1023.06,464.96,1023.07,465.1,1023.09z"/>
			<path fill="#6E6E6D" d="M511.86,1067.28c-1.11,0.04-1.74,0.07-1.9,0.07c-0.84,0-2.36-0.04-4.55-0.12
				c-2.2-0.08-6.76-0.12-13.69-0.12h-8.63c-0.32,0-1.47,0.06-3.46,0.17c-1.99,0.11-3.2,0.17-3.63,0.17c-1.72,0-2.58-0.23-2.58-0.68
				c0-0.36,0.34-0.55,1.02-0.58c2.19-0.14,3.72-0.61,4.58-1.41c0.86-0.8,1.45-1.96,1.76-3.46c0.32-1.51,0.48-5.58,0.48-12.21
				l0.03-12.16c0-3.94-0.18-6.69-0.53-8.25c-0.35-1.56-1.07-2.76-2.17-3.58c-1.1-0.83-2.34-1.3-3.72-1.41
				c-0.72-0.07-1.09-0.31-1.09-0.73c0-0.42,0.33-0.63,0.98-0.63c0.16,0,0.45,0.01,0.88,0.03c3.6,0.23,7.81,0.34,12.62,0.34l5.97-0.1
				c0.61,0,0.92,0.23,0.92,0.68c0,0.41-0.33,0.61-0.98,0.61c-1.61,0-2.95,0.32-4.02,0.95c-1.07,0.63-1.79,1.36-2.14,2.19
				c-0.35,0.83-0.53,2.44-0.53,4.84l-0.27,16.05l0.07,8.96c0,2.78,0.12,4.59,0.36,5.43c0.24,0.84,0.73,1.59,1.48,2.26
				c0.75,0.67,2.1,1,4.07,1c0.16,0,2.18-0.07,6.08-0.2c3.1-0.43,5.88-1.95,8.35-4.55c2.47-2.6,4.11-4.93,4.92-6.99
				c0.25-0.59,0.55-0.88,0.91-0.88c0.38,0,0.57,0.27,0.57,0.81c0,0.63-0.32,2.9-0.97,6.8
				C512.42,1064.48,512.02,1066.72,511.86,1067.28z"/>
			<path fill="#6E6E6D" d="M554.59,1067.28c-1.11,0.04-1.74,0.07-1.9,0.07c-0.84,0-2.36-0.04-4.55-0.12
				c-2.2-0.08-6.76-0.12-13.69-0.12h-8.63c-0.32,0-1.47,0.06-3.46,0.17c-1.99,0.11-3.2,0.17-3.63,0.17c-1.72,0-2.58-0.23-2.58-0.68
				c0-0.36,0.34-0.55,1.02-0.58c2.19-0.14,3.72-0.61,4.58-1.41c0.86-0.8,1.45-1.96,1.76-3.46c0.32-1.51,0.48-5.58,0.48-12.21
				l0.03-12.16c0-3.94-0.18-6.69-0.53-8.25c-0.35-1.56-1.07-2.76-2.17-3.58c-1.1-0.83-2.34-1.3-3.72-1.41
				c-0.72-0.07-1.09-0.31-1.09-0.73c0-0.42,0.33-0.63,0.98-0.63c0.16,0,0.45,0.01,0.88,0.03c3.6,0.23,7.81,0.34,12.62,0.34l5.97-0.1
				c0.61,0,0.92,0.23,0.92,0.68c0,0.41-0.33,0.61-0.98,0.61c-1.61,0-2.95,0.32-4.02,0.95c-1.07,0.63-1.79,1.36-2.14,2.19
				c-0.35,0.83-0.53,2.44-0.53,4.84l-0.27,16.05l0.07,8.96c0,2.78,0.12,4.59,0.36,5.43c0.24,0.84,0.73,1.59,1.48,2.26
				c0.75,0.67,2.1,1,4.07,1c0.16,0,2.18-0.07,6.08-0.2c3.1-0.43,5.88-1.95,8.35-4.55c2.47-2.6,4.11-4.93,4.92-6.99
				c0.25-0.59,0.55-0.88,0.91-0.88c0.38,0,0.57,0.27,0.57,0.81c0,0.63-0.32,2.9-0.97,6.8
				C555.15,1064.48,554.75,1066.72,554.59,1067.28z"/>
			<path fill="#6E6E6D" d="M562.13,1022.35l6.19,0.14l9.49-0.14c1.13,0,1.7,0.23,1.7,0.68c0,0.34-0.31,0.55-0.92,0.64
				c-2.51,0.32-4.08,1.22-4.7,2.71c-0.62,1.49-0.93,7.01-0.93,16.56c0,3.51,0.09,7.46,0.27,11.84c0.18,4.39,0.38,7.01,0.61,7.87
				c0.23,0.86,0.66,1.56,1.29,2.1s1.81,0.93,3.53,1.15c0.56,0.07,0.85,0.28,0.85,0.64c0,0.41-0.26,0.61-0.78,0.61l-8.43-0.07
				l-7.17,0.1c-0.79,0-1.19-0.23-1.19-0.68c0-0.47,0.32-0.71,0.95-0.71c2.1-0.04,3.34-0.75,3.7-2.1c0.36-1.36,0.54-5.69,0.54-13
				c0-7.06-0.06-12.77-0.19-17.14c-0.12-4.37-0.49-7.04-1.1-8.01c-0.61-0.97-1.76-1.58-3.46-1.83c-0.63-0.11-0.95-0.37-0.95-0.78
				S561.65,1022.35,562.13,1022.35z"/>
			<path fill="#6E6E6D" d="M629.39,1036.94c-0.29,0-0.6-0.36-0.92-1.09c-1.85-4.08-4.3-7.22-7.34-9.44
				c-3.04-2.21-6.29-3.32-9.73-3.32c-2.83,0-5.57,0.85-8.21,2.56c-2.65,1.71-4.81,4.34-6.48,7.91c-1.67,3.56-2.51,7.36-2.51,11.39
				c0,5.75,1.72,10.71,5.16,14.9c3.44,4.19,7.74,6.28,12.9,6.28c1.83,0,3.39-0.28,4.68-0.85c1.29-0.56,2.51-1.38,3.65-2.44
				c1.14-1.06,1.83-1.85,2.07-2.38c0.24-0.52,0.36-1.89,0.36-4.11c0-3.71-0.49-6.15-1.48-7.33c-0.98-1.18-2.56-1.76-4.73-1.76
				l-1.05,0.03c-0.66,0-0.98-0.21-0.98-0.64c0-0.52,0.36-0.78,1.09-0.78l1.8,0.07l7.67-0.1l9.4-0.2c0.52,0,0.78,0.24,0.78,0.71
				c0,0.48-0.29,0.74-0.88,0.78c-1.4,0.14-2.55,0.44-3.43,0.92c-0.88,0.47-1.43,1.02-1.63,1.63c-0.2,0.61-0.31,1.64-0.31,3.09
				c0,5.29-0.12,8.2-0.37,8.72c-0.25,0.52-2.35,1.71-6.31,3.56c-3.96,1.86-7.94,2.78-11.95,2.78c-6.63,0-12.3-2.13-17-6.38
				c-4.71-4.25-7.06-9.64-7.06-16.15c0-4.48,1.11-8.54,3.34-12.17c2.23-3.63,5.28-6.45,9.15-8.45c3.87-2,7.81-3,11.81-3
				c3.76,0,7.81,1.07,12.15,3.22c1.22,0.61,2.08,0.92,2.58,0.92c0.7,0,1.24-0.31,1.63-0.92c0.34-0.52,0.65-0.78,0.92-0.78
				c0.52,0,0.83,0.66,0.92,1.97c0.14,2.06,0.46,5.2,0.98,9.43c0.04,0.23,0.07,0.43,0.07,0.61
				C630.1,1036.67,629.86,1036.94,629.39,1036.94z"/>
			<path fill="#6E6E6D" d="M675.81,1023.09c0.66,2.53,1.3,6.09,1.93,10.66c-0.11,0.18-0.23,0.27-0.36,0.27
				c-0.15,0-0.32-0.09-0.5-0.27c-1.56-2.51-3.06-4.42-4.48-5.74c-1.43-1.31-2.86-2.25-4.3-2.8c-1.44-0.55-3.91-0.83-7.42-0.83
				c-3.31,0-5.92,0.19-7.84,0.58c-0.18,0.23-0.27,0.64-0.27,1.25c0,0.16-0.02,0.44-0.07,0.85c-0.23,1.81-0.34,6.71-0.34,14.7
				c0,0.34,0.02,0.81,0.07,1.42c1.72,0.07,2.9,0.1,3.53,0.1c2.85,0,4.92-0.43,6.2-1.28c1.28-0.85,2.39-2.69,3.35-5.51
				c0.16-0.48,0.38-0.72,0.67-0.72c0.43,0,0.64,0.33,0.64,0.99l-0.14,1.36c-0.18,1.79-0.27,3.64-0.27,5.54
				c0,3.08,0.06,5.86,0.17,8.33c0,0.77-0.21,1.16-0.62,1.16c-0.31,0-0.51-0.27-0.62-0.81c-0.48-2.67-1.48-4.59-3-5.77
				c-1.52-1.18-4.82-1.76-9.91-1.76c-0.07,1.65-0.1,4.32-0.1,8.01c0,4.77,0.17,7.8,0.51,9.09s1.15,2.31,2.44,3.07
				c1.29,0.76,3.48,1.14,6.55,1.14c8.81,0,14.49-3.03,17.05-9.09c0.31-0.75,0.64-1.12,0.97-1.12c0.36,0,0.54,0.25,0.54,0.75
				c0,0.27-0.06,0.57-0.17,0.88c-0.14,0.43-0.46,2.04-0.98,4.82c-0.11,0.59-0.54,2.35-1.29,5.29l-14.22-0.03
				c-2.04,0-5.03-0.08-8.98-0.25c-3.95-0.17-7.44-0.26-10.49-0.27s-4.63-0.07-4.77-0.19c-0.14-0.11-0.2-0.24-0.2-0.37
				c0-0.45,0.37-0.68,1.12-0.68c2.51,0,4.16-0.67,4.95-2c0.79-1.33,1.19-4.58,1.19-9.73l-0.03-6.95l0.1-6.51
				c0-1.31-0.07-3.79-0.22-7.44c-0.15-3.65-0.28-5.74-0.41-6.26c-0.12-0.52-0.48-1.03-1.05-1.54c-0.58-0.51-1.85-1.02-3.82-1.54
				c-0.59-0.16-0.88-0.41-0.88-0.75c0-0.41,0.4-0.61,1.19-0.61l6.92,0.37c2.44,0.11,8.45,0.17,18.02,0.17
				C672.46,1023.06,675.68,1023.07,675.81,1023.09z"/>
			<path fill="#6E6E6D" d="M695.12,1022.93c1.36,1.83,3.71,4.67,7.06,8.52l10.86,12.59l10.45,12.08c0.23-4.09,0.34-9.41,0.34-15.95
				c0-4.91-0.1-8.2-0.31-9.86s-0.96-3.06-2.26-4.19c-1.3-1.13-2.92-1.7-4.87-1.7c-0.91,0-1.36-0.19-1.36-0.58
				c0-0.23,0.1-0.39,0.29-0.49c0.19-0.1,1.71-0.2,4.56-0.31c2.85-0.1,5.25-0.15,7.19-0.15l4.58,0.03h0.75c0.7,0,1.05,0.2,1.05,0.59
				c0,0.35-0.31,0.56-0.92,0.63c-2.29,0.25-3.93,0.84-4.94,1.78c-1.01,0.94-1.61,2.29-1.8,4.06c-0.19,1.77-0.29,7.71-0.29,17.83
				l-0.33,17.93c0,0.91-0.22,1.36-0.67,1.36c-0.12,0-0.27-0.05-0.47-0.15c-0.2-0.1-1.21-1.24-3.04-3.43s-4.09-4.8-6.77-7.86
				c-2.68-3.05-4.79-5.53-6.33-7.43c-3.37-4.09-5.5-6.62-6.38-7.57c-3.28-3.48-5.22-5.72-5.8-6.72c-0.39-0.68-0.74-1.02-1.05-1.02
				c-0.25,0-0.37,0.44-0.37,1.32l0.07,5.26c0,6.67,0.18,12,0.54,15.98c0.36,3.98,0.74,6.32,1.14,7.01c0.4,0.69,1.09,1.39,2.07,2.09
				c0.98,0.7,2.03,1.05,3.14,1.05c1.49,0,2.24,0.27,2.24,0.81c0,0.41-0.42,0.61-1.26,0.61l-16.32-0.03c-0.77,0-1.15-0.19-1.15-0.58
				c0-0.45,0.37-0.68,1.12-0.68c2.78,0,4.64-0.62,5.57-1.85s1.39-3.85,1.39-7.86l-0.28-11.91c0-7.04-0.18-11.18-0.57-12.44
				c-0.38-1.26-1.25-2.78-2.6-4.58s-2.88-2.81-4.6-3.04c-0.77-0.09-1.15-0.29-1.15-0.61c0-0.43,0.5-0.64,1.49-0.64L695.12,1022.93z"
				/>
			<path fill="#6E6E6D" d="M756.07,1024.55c-1.77-0.09-3.01-0.14-3.73-0.14c-4.89,0-8.43,1.02-10.63,3.07
				c-2.2,2.04-3.47,3.86-3.84,5.45c-0.11,0.57-0.42,0.85-0.91,0.85c-0.22,0-0.44-0.11-0.64-0.33c0.11-2.7,0.55-6.33,1.32-10.91
				c1.09-0.02,1.78-0.03,2.07-0.03c1.76,0,4.13,0.09,7.09,0.27c3.19,0.18,8.08,0.27,14.66,0.27c6.74,0,11.13-0.08,13.17-0.24
				c1.85-0.18,4.4-0.27,7.64-0.27c0.27,1.63,0.45,3.33,0.54,5.09c0.14,2.01,0.27,3.43,0.41,4.24c0.02,0.18,0.03,0.37,0.03,0.58
				c0,0.54-0.24,0.81-0.71,0.81c-0.29,0-0.53-0.1-0.73-0.29c-0.19-0.19-0.63-0.83-1.31-1.92c-1.18-1.83-2.4-3.22-3.67-4.16
				c-1.27-0.94-2.68-1.54-4.24-1.82s-4.72-0.45-9.47-0.54c-0.27,3.42-0.41,7.32-0.41,11.71c0,14.53,0.31,23.09,0.93,25.69
				c0.62,2.6,2.84,3.9,6.67,3.9c0.93,0,1.39,0.19,1.39,0.58c0,0.45-0.44,0.68-1.32,0.68h-20.87c-0.54,0-0.81-0.21-0.81-0.64
				s0.53-0.65,1.6-0.65c1.79,0,3.23-0.5,4.33-1.51c1.1-1.01,1.73-2.37,1.9-4.09c0.17-1.72,0.25-6.69,0.25-14.9
				C756.79,1038.31,756.55,1031.39,756.07,1024.55z"/>
		</g>
	</g>
	<g>
		<path fill="#6E6E6D" d="M365.68,1081.8h1.3c2.09,4.28,4.97,11.61,8.65,21.97c2.37,6.64,4,10.71,4.88,12.22
			c0.88,1.51,2.3,2.34,4.25,2.51c0.62,0.06,0.93,0.26,0.93,0.62c0,0.26-0.16,0.39-0.48,0.39l-0.39-0.03
			c-1.72-0.15-3.91-0.22-6.57-0.22c-4.08,0-6.7,0.07-7.86,0.2c-0.58,0-0.87-0.17-0.87-0.5c0-0.24,0.21-0.39,0.65-0.45
			c1.59-0.15,2.69-0.42,3.3-0.81c0.61-0.39,0.91-1.01,0.91-1.85c0-0.8-0.57-2.82-1.71-6.03l-1.65-4.83c-0.97,0-5.32,0.06-13.05,0.17
			c-1.95,5.18-2.92,8.45-2.92,9.8c0,1.15,0.48,2,1.45,2.55c0.96,0.55,1.91,0.86,2.85,0.92c0.69,0.05,1.04,0.26,1.04,0.63
			c0,0.15-0.11,0.28-0.34,0.41c-2.99-0.13-4.8-0.2-5.42-0.2c-3.14,0-5.26,0.04-6.34,0.11c-0.6,0-0.9-0.17-0.9-0.5
			c0-0.3,0.26-0.49,0.79-0.56c2.15-0.28,3.8-1.74,4.94-4.38s2.92-7.38,5.34-14.23C360.64,1093.47,363.06,1087.5,365.68,1081.8z
			 M364.56,1087.91c-1.74,3.56-3.78,8.72-6.1,15.49c1.93-0.09,3.31-0.14,4.15-0.14l7.89,0.14c-0.69-1.95-1.66-4.53-2.91-7.75
			C366.06,1091.82,365.05,1089.24,364.56,1087.91z"/>
		<path fill="#6E6E6D" d="M390.62,1082.25l5.12,0.11l7.84-0.11c0.94,0,1.41,0.19,1.41,0.56c0,0.28-0.25,0.46-0.76,0.53
			c-2.08,0.26-3.37,1.01-3.89,2.25c-0.51,1.24-0.77,5.8-0.77,13.7c0,2.9,0.07,6.16,0.22,9.79s0.32,5.8,0.51,6.51
			c0.19,0.71,0.54,1.29,1.07,1.74c0.52,0.45,1.5,0.77,2.92,0.95c0.47,0.06,0.7,0.23,0.7,0.53c0,0.34-0.22,0.5-0.65,0.5l-6.97-0.06
			l-5.93,0.08c-0.66,0-0.98-0.19-0.98-0.56c0-0.39,0.26-0.59,0.79-0.59c1.74-0.04,2.76-0.62,3.06-1.74c0.3-1.12,0.45-4.7,0.45-10.75
			c0-5.84-0.05-10.56-0.15-14.17c-0.1-3.61-0.41-5.82-0.91-6.62c-0.5-0.8-1.46-1.31-2.86-1.52c-0.52-0.09-0.79-0.31-0.79-0.65
			S390.23,1082.25,390.62,1082.25z"/>
		<path fill="#6E6E6D" d="M431.59,1100.44c2.6,1.13,4.4,2.3,5.42,3.53s1.77,3.12,2.25,5.69c0.63,3.37,1.5,5.63,2.62,6.79
			c1.12,1.16,2.58,1.78,4.39,1.85c0.5,0.04,0.76,0.22,0.76,0.55c0,0.33-0.29,0.49-0.87,0.49c-5.24,0-8.41-0.17-9.53-0.52
			c-1.11-0.35-1.94-2.26-2.48-5.74c-0.51-3.39-1.03-5.86-1.59-7.42c-0.55-1.56-1.43-2.76-2.64-3.59c-1.21-0.83-3.09-1.25-5.65-1.25
			c-0.97,0-2.08,0.1-3.31,0.31c-0.09,1.18-0.14,2.4-0.14,3.67c0,4.8,0.07,7.91,0.2,9.32c0.13,1.41,0.53,2.44,1.19,3.08
			s1.77,0.99,3.33,1.02c0.67,0.02,1.01,0.18,1.01,0.49c0,0.37-0.41,0.55-1.23,0.55h-13.89c-0.8,0-1.21-0.18-1.21-0.55
			c0-0.33,0.32-0.49,0.95-0.49c1.42,0,2.41-0.21,2.96-0.65c0.55-0.43,0.99-1.1,1.31-2c0.32-0.91,0.48-2.55,0.48-4.92l-0.06-5.72
			l0.03-8.72c0-4.45-0.1-7.39-0.29-8.83c-0.2-1.44-0.55-2.41-1.05-2.9c-0.5-0.5-1.67-0.88-3.51-1.16c-0.39-0.06-0.59-0.21-0.59-0.48
			c0-0.3,0.39-0.45,1.18-0.45l16.61-0.36c4.58,0,7.91,0.88,9.98,2.64c2.07,1.76,3.1,3.91,3.1,6.45c0,1.61-0.42,3.08-1.25,4.4
			c-0.83,1.33-1.82,2.29-2.96,2.89C435.95,1099,434.12,1099.68,431.59,1100.44z M420.95,1099.73c3.59-0.07,6.29-0.33,8.08-0.76
			s3.33-1.38,4.59-2.83c1.26-1.46,1.89-3.19,1.89-5.19c0-2.11-0.7-3.96-2.1-5.53c-1.4-1.57-3.65-2.36-6.74-2.36
			c-1.68,0-3.55,0.22-5.58,0.67c-0.22,5.14-0.34,9.24-0.34,12.29C420.76,1097.07,420.82,1098.31,420.95,1099.73z"/>
		<path fill="#6E6E6D" d="M485.58,1119.4c-1.85,0.26-3.3,0.39-4.34,0.39c-2.75,0-5.47-0.76-8.16-2.29c-2.69-1.52-4.86-3.7-6.5-6.52
			c-1.64-2.83-2.47-6.01-2.47-9.54c0-5.18,1.83-9.72,5.48-13.62s8.14-5.85,13.45-5.85c3.4,0,6.45,0.83,9.16,2.48
			c2.7,1.66,4.83,3.93,6.39,6.83c1.56,2.9,2.34,5.87,2.34,8.9c0,2.47-0.55,5-1.66,7.59c-1.1,2.59-2.55,4.79-4.35,6.61
			s-3.86,3.38-6.19,4.7c-2.33,1.32-5.07,2.58-8.24,3.77c-2.38,0.92-4.05,1.61-5.02,2.08c0.77-0.06,1.37-0.08,1.8-0.08
			c1.37,0,2.58,0.21,3.63,0.64c1.05,0.43,2.75,1.38,5.11,2.86c3.05,1.87,5.36,2.81,6.93,2.81c1.18,0,2.17-0.26,2.97-0.79
			c0.8-0.52,1.76-1.47,2.86-2.83c0.3-0.37,0.57-0.56,0.81-0.56c0.36,0,0.53,0.18,0.53,0.53c0,0.69-1.01,2.04-3.03,4.04
			c-2.02,2-4.5,3-7.46,3c-1.5,0-3.08-0.36-4.75-1.08c-1.67-0.72-4.12-2.25-7.33-4.59c-1.83-1.31-3.32-1.96-4.46-1.96
			s-1.95,0.34-2.43,1.02c-0.48,0.68-0.8,1.79-0.97,3.33c-0.09,1.05-0.29,1.79-0.6,2.22c-0.31,0.43-0.84,0.65-1.59,0.65
			c-0.49,0-0.94-0.19-1.36-0.56c-0.42-0.38-0.63-0.85-0.63-1.43c0-0.92,0.5-2.02,1.51-3.3c1.01-1.28,2.35-2.38,4.01-3.3
			c1.66-0.92,4.33-2.08,7.99-3.48C482.41,1120.78,484.59,1119.89,485.58,1119.4z M470.4,1100.04c0,3.09,0.45,6.11,1.35,9.08
			s2.29,5.24,4.18,6.83c1.89,1.59,4.07,2.39,6.56,2.39c3.63,0,6.56-1.71,8.8-5.12c2.24-3.41,3.36-7.59,3.36-12.53
			c0-4.66-1.11-8.71-3.34-12.15c-2.22-3.44-5.2-5.16-8.94-5.16c-3.66,0-6.57,1.71-8.73,5.14S470.4,1095.77,470.4,1100.04z"/>
		<path fill="#6E6E6D" d="M505,1082.53h14.06c0.8,0,1.21,0.17,1.21,0.5c0,0.34-0.3,0.53-0.9,0.59c-1.33,0.13-2.31,0.5-2.95,1.09
			c-0.64,0.6-1.12,1.66-1.45,3.17c-0.33,1.52-0.49,4.76-0.49,9.74c0,5.97,0.17,10.1,0.52,12.4c0.35,2.3,1.43,4.13,3.26,5.49
			s4.31,2.03,7.45,2.03c3.29,0,5.8-0.63,7.52-1.88c1.72-1.25,2.84-3.12,3.35-5.58c0.51-2.47,0.77-7.83,0.77-16.08
			c0-4.25-0.44-7.03-1.32-8.35c-0.88-1.32-2.18-1.98-3.9-1.98c-0.69,0-1.04-0.2-1.04-0.59c0-0.37,0.46-0.56,1.38-0.56h11.23
			c0.5,0,0.76,0.19,0.76,0.56c0,0.26-0.21,0.42-0.62,0.48c-1.42,0.21-2.46,0.66-3.13,1.35s-1.1,1.95-1.3,3.76
			c-0.21,1.82-0.31,4.48-0.31,8c0,4.4-0.16,8.13-0.49,11.2c-0.33,3.07-1.03,5.36-2.12,6.86s-2.72,2.72-4.9,3.65
			c-2.18,0.93-4.86,1.39-8.04,1.39c-3.26,0-6.03-0.52-8.32-1.56c-2.29-1.04-3.84-2.42-4.66-4.13c-0.81-1.71-1.22-4.27-1.22-7.68
			l0.11-7.78c0-6.91-0.29-11.14-0.88-12.68c-0.59-1.54-1.86-2.33-3.8-2.37c-0.64,0-0.95-0.15-0.95-0.46
			C503.82,1082.72,504.22,1082.53,505,1082.53z"/>
		<path fill="#6E6E6D" d="M560.75,1081.8h1.3c2.09,4.28,4.97,11.61,8.65,21.97c2.37,6.64,4,10.71,4.88,12.22
			c0.88,1.51,2.3,2.34,4.25,2.51c0.62,0.06,0.93,0.26,0.93,0.62c0,0.26-0.16,0.39-0.48,0.39l-0.39-0.03
			c-1.72-0.15-3.91-0.22-6.57-0.22c-4.08,0-6.7,0.07-7.86,0.2c-0.58,0-0.87-0.17-0.87-0.5c0-0.24,0.21-0.39,0.65-0.45
			c1.59-0.15,2.69-0.42,3.3-0.81c0.61-0.39,0.91-1.01,0.91-1.85c0-0.8-0.57-2.82-1.71-6.03l-1.65-4.83c-0.97,0-5.32,0.06-13.05,0.17
			c-1.95,5.18-2.92,8.45-2.92,9.8c0,1.15,0.48,2,1.45,2.55c0.96,0.55,1.91,0.86,2.85,0.92c0.69,0.05,1.04,0.26,1.04,0.63
			c0,0.15-0.11,0.28-0.34,0.41c-2.99-0.13-4.8-0.2-5.42-0.2c-3.14,0-5.26,0.04-6.34,0.11c-0.6,0-0.9-0.17-0.9-0.5
			c0-0.3,0.26-0.49,0.79-0.56c2.15-0.28,3.8-1.74,4.94-4.38s2.92-7.38,5.34-14.23C555.71,1093.47,558.12,1087.5,560.75,1081.8z
			 M559.63,1087.91c-1.74,3.56-3.78,8.72-6.1,15.49c1.93-0.09,3.31-0.14,4.15-0.14l7.89,0.14c-0.69-1.95-1.66-4.53-2.91-7.75
			C561.12,1091.82,560.11,1089.24,559.63,1087.91z"/>
		<path fill="#6E6E6D" d="M614.78,1119.4c-0.92,0.04-1.44,0.06-1.57,0.06c-0.69,0-1.95-0.03-3.76-0.1c-1.82-0.07-5.59-0.1-11.32-0.1
			h-7.13c-0.26,0-1.22,0.05-2.86,0.14c-1.65,0.09-2.65,0.14-3.01,0.14c-1.42,0-2.13-0.19-2.13-0.56c0-0.3,0.28-0.46,0.84-0.48
			c1.81-0.11,3.08-0.5,3.79-1.17c0.71-0.67,1.2-1.62,1.46-2.87c0.26-1.25,0.39-4.61,0.39-10.1l0.03-10.05
			c0-3.26-0.15-5.53-0.44-6.82s-0.89-2.28-1.8-2.96c-0.91-0.68-1.93-1.07-3.07-1.17c-0.6-0.06-0.9-0.26-0.9-0.6
			c0-0.34,0.27-0.52,0.81-0.52c0.13,0,0.37,0.01,0.73,0.03c2.97,0.19,6.45,0.28,10.44,0.28l4.94-0.08c0.5,0,0.76,0.19,0.76,0.56
			c0,0.34-0.27,0.51-0.81,0.51c-1.33,0-2.44,0.26-3.33,0.79c-0.89,0.52-1.48,1.13-1.77,1.81s-0.43,2.02-0.43,4l-0.22,13.27
			l0.06,7.41c0,2.3,0.1,3.8,0.29,4.49c0.2,0.69,0.6,1.31,1.22,1.87s1.74,0.83,3.37,0.83c0.13,0,1.81-0.06,5.03-0.17
			c2.56-0.35,4.87-1.61,6.91-3.76s3.4-4.08,4.07-5.78c0.2-0.49,0.46-0.73,0.75-0.73c0.32,0,0.47,0.22,0.47,0.67
			c0,0.52-0.27,2.4-0.8,5.63C615.24,1117.08,614.91,1118.93,614.78,1119.4z"/>
		<path fill="#6E6E6D" d="M621.02,1082.25l5.12,0.11l7.84-0.11c0.94,0,1.41,0.19,1.41,0.56c0,0.28-0.25,0.46-0.76,0.53
			c-2.08,0.26-3.37,1.01-3.89,2.25c-0.51,1.24-0.77,5.8-0.77,13.7c0,2.9,0.07,6.16,0.22,9.79s0.32,5.8,0.51,6.51
			c0.19,0.71,0.54,1.29,1.07,1.74c0.52,0.45,1.5,0.77,2.92,0.95c0.47,0.06,0.7,0.23,0.7,0.53c0,0.34-0.22,0.5-0.65,0.5l-6.97-0.06
			l-5.93,0.08c-0.66,0-0.98-0.19-0.98-0.56c0-0.39,0.26-0.59,0.79-0.59c1.74-0.04,2.76-0.62,3.06-1.74c0.3-1.12,0.45-4.7,0.45-10.75
			c0-5.84-0.05-10.56-0.15-14.17c-0.1-3.61-0.41-5.82-0.91-6.62c-0.5-0.8-1.46-1.31-2.86-1.52c-0.52-0.09-0.79-0.31-0.79-0.65
			S620.62,1082.25,621.02,1082.25z"/>
		<path fill="#6E6E6D" d="M656.26,1084.07c-1.46-0.08-2.49-0.11-3.09-0.11c-4.04,0-6.97,0.84-8.79,2.53
			c-1.82,1.69-2.87,3.19-3.17,4.51c-0.09,0.47-0.34,0.7-0.75,0.7c-0.19,0-0.36-0.09-0.53-0.27c0.09-2.23,0.46-5.24,1.09-9.02
			c0.9-0.02,1.47-0.03,1.71-0.03c1.46,0,3.41,0.08,5.86,0.22c2.64,0.15,6.68,0.22,12.12,0.22c5.57,0,9.2-0.07,10.89-0.2
			c1.53-0.15,3.64-0.22,6.31-0.22c0.22,1.35,0.37,2.75,0.45,4.21c0.11,1.67,0.22,2.83,0.34,3.51c0.02,0.15,0.03,0.31,0.03,0.48
			c0,0.45-0.2,0.67-0.59,0.67c-0.24,0-0.44-0.08-0.6-0.24s-0.52-0.69-1.08-1.59c-0.97-1.52-1.98-2.66-3.03-3.44
			c-1.05-0.78-2.22-1.28-3.51-1.5c-1.29-0.22-3.9-0.37-7.83-0.45c-0.22,2.83-0.34,6.05-0.34,9.68c0,12.01,0.26,19.09,0.77,21.24
			c0.51,2.15,2.35,3.23,5.51,3.23c0.77,0,1.15,0.16,1.15,0.48c0,0.38-0.36,0.56-1.09,0.56h-17.26c-0.45,0-0.67-0.18-0.67-0.53
			s0.44-0.53,1.32-0.53c1.48,0,2.67-0.42,3.58-1.25c0.91-0.83,1.43-1.96,1.57-3.38c0.14-1.42,0.21-5.53,0.21-12.32
			C656.85,1095.44,656.65,1089.72,656.26,1084.07z"/>
		<path fill="#6E6E6D" d="M701.72,1100.06c1.05-1.16,2.64-3.25,4.78-6.29c2.14-3.03,3.41-4.92,3.79-5.65s0.58-1.32,0.58-1.75
			c0-0.77-0.39-1.38-1.16-1.84s-1.57-0.69-2.37-0.69c-0.64,0-0.95-0.17-0.95-0.51c0-0.35,0.53-0.53,1.6-0.53h10.58
			c0.97,0,1.46,0.2,1.46,0.59c0,0.32-0.22,0.48-0.65,0.48c-1.1,0-2.17,0.25-3.19,0.76c-1.02,0.51-2.26,1.64-3.72,3.4l-4.88,6.59
			c-2.56,3.44-3.95,5.46-4.15,6.06c-0.3,0.88-0.45,3.21-0.45,6.99c0,5.01,0.21,7.99,0.63,8.92s1.78,1.51,4.08,1.71
			c0.6,0.06,0.9,0.24,0.9,0.56c0,0.37-0.33,0.56-0.98,0.56l-7.56-0.17c-1.82,0-3.31,0.04-4.47,0.11c-0.94,0.07-1.54,0.11-1.8,0.11
			c-0.71,0-1.07-0.19-1.07-0.56c0-0.3,0.26-0.46,0.79-0.48c1.81-0.08,3.01-0.75,3.61-2.02c0.6-1.27,0.9-3.15,0.9-5.64
			c0-2.73-0.17-4.94-0.51-6.62c-0.07-0.43-0.88-1.96-2.41-4.59c-1.53-2.63-3.41-5.54-5.63-8.73c-2.22-3.19-3.8-5.13-4.76-5.82
			s-1.88-1.08-2.78-1.15c-0.67-0.06-1.01-0.24-1.01-0.56c0-0.21,0.09-0.34,0.27-0.41c0.18-0.07,0.71-0.1,1.59-0.1h12.26
			c0.84,0,1.35,0.03,1.52,0.08c0.17,0.06,0.25,0.21,0.25,0.45c0,0.3-0.23,0.47-0.7,0.51c-2.36,0.19-3.54,0.9-3.54,2.13
			c0,0.64,0.43,1.64,1.29,3C694.73,1090.35,697.35,1094.04,701.72,1100.06z"/>
	</g>
</g>
<g>
	<defs>
		
			<rect id="SVGID_1_" x="-418.78" y="421.22" transform="matrix(6.123234e-17 -1 1 6.123234e-17 -419.8881 1502.8357)" width="1920.5" height="1080.28"/>
	</defs>
	<clipPath id="SVGID_2_">
		<use xlink:href="#SVGID_1_"  overflow="visible"/>
	</clipPath>
	<g clip-path="url(#SVGID_2_)">
		<g>
			<g>
				<g>
					<g>
						<g>
							<path fill="#17517D" d="M1371.39,334.82l-0.62,1.08C1166.05,172.25,907.84,73.62,636.54,85.51
								C369.58,97.22,128.9,202.24-55.86,367.49c0,0-115.18,116.05-160.72,179.48c-141.49,196-221.07,438.75-209.65,698.98
								c17.2,392.08,235.52,727.59,550.83,912.03c190.95,124.09,385.92,211.42,542.89,280.89
								c733.85,324.54,1013.08,303.21,1132.39,272.02c139.57-29.22,230.33-142.64,247.97-295.26
								C2218.71,1007.77,1371.39,334.82,1371.39,334.82z M1693.58,2075.27c-12.05,104.26-74.05,181.76-169.37,201.69
								c-81.5,21.3-272.23,35.88-773.53-185.79c-107.23-47.45-240.4-107.11-370.84-191.87
								c-215.37-125.98-364.5-355.16-376.26-622.99c-7.82-177.75,46.59-343.59,143.22-477.48c31.12-43.32,109.8-122.58,109.8-122.58
								c126.21-112.88,290.59-184.59,472.95-192.61c185.33-8.14,361.42,58.99,501.25,170.81
								C1230.8,654.45,1810.29,1113.61,1693.58,2075.27z"/>
						</g>
					</g>
				</g>
			</g>
		</g>
	</g>
</g>
<g>
	<g>
		<g>
			<g>
				<g>
					<g>
						<g>
							<g>
								<path opacity="0.47" fill="#FFFFFF" d="M423.12,440.49c8.28,10,20.74,15.7,33.72,15.43c-4.4-1.43-9.6-3.42-15.79-6.16
									C435.86,447.46,429.42,444.58,423.12,440.49z"/>
								<path opacity="0.47" fill="#FFFFFF" d="M470.96,364.79L470.96,364.79c0,0,19.19,15.18,28.7,46.59
									c0.45-3.87,0.66-7.48,1.02-10.95c0.11-1.01,0.19-1.95,0.28-2.92c-11.29-26.16-27.35-38.85-27.35-38.85l0,0
									c-2.12-1.7-4.38-3.22-6.7-4.64c-2.83,1.03-5.52,2.14-8.06,3.32C463.18,359.3,467.25,361.83,470.96,364.79z"/>
								<path opacity="0.47" fill="#FFFFFF" d="M467.4,373.05L467.4,373.05c-5.83-4.66-12.74-7.96-20.14-9.36
									c-4.37,2.81-8.17,5.77-11.48,8.74c1.39-0.22,2.8-0.4,4.24-0.46c8.97-0.39,17.5,2.87,24.27,8.28l0,0
									c0,0,25.27,20.05,22.96,61.94c3.22-3.5,5.8-7.48,7.69-11.8C490.88,391.67,467.4,373.05,467.4,373.05z"/>
								<path fill="#FFFFFF" d="M501.96,380.49c0.23-15.87-2.07-22.76-3.96-25.72c-2.71-4.75-7.92-6.72-13.7-5.56
									c-2.04,0.4-4,0.85-5.92,1.32C481.45,353.21,492.01,363.11,501.96,380.49z"/>
								<path fill="#FFFFFF" d="M461.19,387.41l-0.02,0.03c-5.3-4.23-11.97-6.78-18.99-6.48c-6.91,0.3-13.13,3.02-17.91,7.29
									c0,0-2.98,3-4.16,4.64c-3.66,5.07-5.72,11.35-5.42,18.08c0.44,10.14,6.09,18.82,14.25,23.59c4.94,3.21,9.98,5.47,14.04,7.27
									c18.98,8.39,26.2,7.84,29.29,7.04c3.61-0.76,5.96-3.69,6.41-7.64C483.11,404.82,461.19,387.41,461.19,387.41z
									 M469.53,432.43c-0.31,2.7-1.92,4.7-4.38,5.22c-2.11,0.55-7.04,0.93-20.01-4.81c-2.77-1.23-6.22-2.77-9.59-4.96
									c-5.57-3.26-9.43-9.19-9.73-16.11c-0.2-4.6,1.21-8.89,3.7-12.35c0.8-1.12,2.84-3.17,2.84-3.17
									c3.26-2.92,7.52-4.77,12.23-4.98c4.79-0.21,9.35,1.53,12.97,4.42C457.56,395.68,472.55,407.56,469.53,432.43z"/>
							</g>
						</g>
					</g>
				</g>
			</g>
		</g>
		<g>
			<g>
				<path fill="#FFFFFF" d="M513.12,426.36v18.77h-6.26v-18.77h-5.14v-5.3h16.53v5.3H513.12z"/>
				<path fill="#FFFFFF" d="M520.5,418.63h5.78v12.19c0.79-0.96,1.58-1.6,2.39-1.93c0.81-0.33,1.76-0.49,2.84-0.49
					c2.06,0,3.62,0.57,4.68,1.71s1.58,2.68,1.58,4.61v10.4h-5.78v-8.27c0-0.83-0.06-1.5-0.19-2.01c-0.13-0.51-0.34-0.9-0.64-1.18
					c-0.51-0.45-1.13-0.67-1.85-0.67c-0.98,0-1.73,0.29-2.25,0.88c-0.52,0.59-0.78,1.42-0.78,2.51v8.75h-5.78V418.63z"/>
				<path fill="#FFFFFF" d="M541.3,422.46c0-0.45,0.08-0.87,0.26-1.26c0.17-0.39,0.4-0.74,0.7-1.04c0.3-0.3,0.64-0.53,1.04-0.7
					c0.39-0.17,0.81-0.26,1.26-0.26s0.87,0.09,1.26,0.26c0.39,0.17,0.74,0.4,1.04,0.7c0.3,0.3,0.53,0.64,0.7,1.04
					c0.17,0.39,0.26,0.81,0.26,1.26s-0.08,0.87-0.26,1.26c-0.17,0.39-0.4,0.74-0.7,1.04c-0.3,0.3-0.64,0.53-1.04,0.7
					c-0.39,0.17-0.81,0.26-1.26,0.26s-0.87-0.08-1.26-0.26c-0.39-0.17-0.74-0.4-1.04-0.7c-0.3-0.3-0.53-0.64-0.7-1.04
					C541.39,423.33,541.3,422.91,541.3,422.46z M547.46,428.75v16.37h-5.78v-16.37H547.46z"/>
				<path fill="#FFFFFF" d="M551.42,428.75h5.78v2.07c0.79-0.96,1.58-1.6,2.39-1.93c0.81-0.33,1.76-0.49,2.84-0.49
					c1.15,0,2.13,0.19,2.95,0.56c0.82,0.37,1.52,0.9,2.09,1.58c0.47,0.55,0.79,1.17,0.96,1.85c0.17,0.68,0.26,1.46,0.26,2.33v10.4
					h-5.78v-8.27c0-0.81-0.06-1.46-0.18-1.96c-0.12-0.5-0.32-0.9-0.62-1.2c-0.26-0.26-0.54-0.44-0.86-0.54
					c-0.32-0.11-0.66-0.16-1.02-0.16c-0.98,0-1.73,0.29-2.25,0.88c-0.52,0.59-0.78,1.42-0.78,2.51v8.75h-5.78V428.75z"/>
				<path fill="#FFFFFF" d="M578.39,418.63v16.02l6.06-5.9h7.92l-8.2,7.56l8.68,8.81h-8.11l-6.35-6.67v6.67h-5.78v-26.49H578.39z"/>
			</g>
		</g>
		<g>
			<g>
				<path fill="#FFFFFF" d="M612.3,439.53h-9.34l-2.43,5.3h-3.55l10.8-23.2l10.42,23.2h-3.6L612.3,439.53z M610.96,436.43
					l-3.24-7.42l-3.39,7.42H610.96z"/>
				<path fill="#FFFFFF" d="M619.83,425.34c0-0.56,0.2-1.04,0.61-1.44c0.4-0.41,0.89-0.61,1.46-0.61c0.57,0,1.06,0.2,1.47,0.61
					c0.4,0.4,0.61,0.88,0.61,1.46s-0.2,1.06-0.61,1.47c-0.4,0.41-0.88,0.61-1.46,0.61c-0.58,0-1.07-0.2-1.47-0.61
					C620.04,426.42,619.83,425.92,619.83,425.34z M623.5,431.06v13.77h-3.18v-13.77H623.5z"/>
				<path fill="#FFFFFF" d="M627.53,431.06h3.18v1.23c0.58-0.61,1.1-1.03,1.56-1.26c0.46-0.24,1.01-0.35,1.64-0.35
					c0.84,0,1.72,0.27,2.63,0.82l-1.46,2.91c-0.6-0.43-1.19-0.65-1.77-0.65c-1.73,0-2.6,1.31-2.6,3.93v7.14h-3.18V431.06z"/>
			</g>
		</g>
	</g>
	<path fill="#FFFFFF" d="M647.37,444.92c2.1-2.98,2.56-4.59,2.58-5.39c0.1-1.25-0.63-2.3-1.88-2.83c-0.44-0.19-0.87-0.36-1.29-0.52
		C647.02,437.08,647.74,440.33,647.37,444.92z"/>
	<path fill="#FFFFFF" d="M656.53,444.92c2.1-2.98,2.56-4.59,2.58-5.39c0.1-1.25-0.63-2.3-1.88-2.83c-0.44-0.19-0.87-0.36-1.29-0.52
		C656.18,437.08,656.9,440.33,656.53,444.92z"/>
	<path fill="#FFFFFF" d="M665.69,444.92c2.1-2.98,2.56-4.59,2.58-5.39c0.1-1.25-0.63-2.3-1.88-2.83c-0.44-0.19-0.87-0.36-1.29-0.52
		C665.33,437.08,666.05,440.33,665.69,444.92z"/>
</g>
</svg>
